<?xml version="1.0" standalone="no"?><!DOCTYPE svg PUBLIC "-//W3C//DTD SVG 1.1//EN" "http://www.w3.org/Graphics/SVG/1.1/DTD/svg11.dtd"><svg t="1623223448491" class="icon" viewBox="0 0 1024 1024" version="1.1" xmlns="http://www.w3.org/2000/svg" p-id="3699" xmlns:xlink="http://www.w3.org/1999/xlink" width="14" height="14"><defs><style type="text/css"></style></defs><path d="M853.331911 853.333618H511.999147V768.000427h341.332764zM853.331911 597.334044H597.332338v85.333192h255.999573z" p-id="3700"></path><path d="M930.131783 46.934962A85.333191 85.333191 0 0 0 853.331911 0.001707H170.666382a85.333191 85.333191 0 0 0-76.799872 46.933255L0 213.334684v767.99872a42.666596 42.666596 0 0 0 42.666596 42.666596h938.665102a42.666596 42.666596 0 0 0 42.666595-42.666596v-767.99872z m-785.065358 63.146561A40.1066 40.1066 0 0 1 175.786374 85.334898h315.732807v127.999786H85.333191zM938.665102 938.666809H85.333191V256.00128h853.331911zM534.185776 213.334684V85.334898H853.331911a40.1066 40.1066 0 0 1 30.719949 24.746625L938.665102 213.334684z" p-id="3701"></path></svg>