<?xml version="1.0" standalone="no"?><!DOCTYPE svg PUBLIC "-//W3C//DTD SVG 1.1//EN" "http://www.w3.org/Graphics/SVG/1.1/DTD/svg11.dtd"><svg t="1623223718737" class="icon" viewBox="0 0 1024 1024" version="1.1" xmlns="http://www.w3.org/2000/svg" p-id="6150" xmlns:xlink="http://www.w3.org/1999/xlink" width="14" height="14"><defs><style type="text/css"></style></defs><path d="M683.008 432.753778a51.2 51.2 0 0 1-51.143111-51.256889 121.571556 121.571556 0 0 0-121.457778-121.344 121.571556 121.571556 0 0 0-121.457778 121.344 51.256889 51.256889 0 0 1-76.686222 44.373333 51.256889 51.256889 0 0 1-25.6-44.373333 224.312889 224.312889 0 0 1 111.729778-194.616889 223.288889 223.288889 0 0 1 224.028444 0 224.312889 224.312889 0 0 1 111.729778 194.56 51.2 51.2 0 0 1-51.2 51.313778z" p-id="6151"></path><path d="M839.623111 432.753778a51.2 51.2 0 0 1-51.2-51.256889 278.357333 278.357333 0 0 0-278.016-278.698667 278.357333 278.357333 0 0 0-278.016 278.698667 51.2 51.2 0 1 1-102.286222 0c0-210.488889 170.268444-381.155556 380.302222-381.155556 210.033778 0 380.302222 170.666667 380.302222 381.155556a51.2 51.2 0 0 1-51.086222 51.2z" p-id="6152"></path><path d="M959.431111 608.938667H563.2V432.753778a51.2 51.2 0 1 0-102.286222 0v176.184889H64.568889c-35.271111 0-63.886222 28.672-63.886222 64.056889v286.72c0 35.328 28.615111 64 63.886222 64h894.862222c35.271111 0 63.943111-28.672 63.943111-64.056889v-286.72c0-35.328-28.615111-64-63.943111-64zM158.321778 867.555556a51.2 51.2 0 1 1 0.113778-102.4 51.2 51.2 0 0 1-0.113778 102.4z m154.965333 0a51.2 51.2 0 1 1 0.113778-102.4 51.2 51.2 0 0 1-0.113778 102.4z" p-id="6153"></path></svg>