<?xml version="1.0" standalone="no"?><!DOCTYPE svg PUBLIC "-//W3C//DTD SVG 1.1//EN" "http://www.w3.org/Graphics/SVG/1.1/DTD/svg11.dtd"><svg t="1623288707764" class="icon" viewBox="0 0 1024 1024" version="1.1" xmlns="http://www.w3.org/2000/svg" p-id="4271" xmlns:xlink="http://www.w3.org/1999/xlink" width="14" height="14"><defs><style type="text/css"></style></defs><path d="M832.030118 27.226353H202.571294c-86.437647 0-157.214118 72.282353-157.214118 160.587294v642.710588c0 88.184471 70.776471 160.466824 157.214118 160.466824h629.458824c86.437647 0 157.214118-72.282353 157.214117-160.527059V187.753412c0-88.244706-70.776471-160.527059-157.214117-160.527059z m83.004235 814.501647c0 42.767059-34.996706 77.703529-77.703529 77.703529H198.415059c-42.767059 0-77.703529-34.936471-77.70353-77.703529V181.488941c0-42.767059 34.936471-77.703529 77.70353-77.703529H837.270588c42.767059 0 77.703529 34.936471 77.70353 77.703529v660.178824zM227.870118 268.167529h480.677647a40.478118 40.478118 0 0 0 0-80.715294h-480.677647a40.478118 40.478118 0 0 0 0 80.715294zM227.809882 428.875294h320.030118a40.779294 40.779294 0 0 0 40.598588-40.658823 40.779294 40.779294 0 0 0-40.598588-40.598589H227.809882a40.719059 40.719059 0 0 0 0 81.317647z m568.440471 72.342588l-194.921412 205.522824L425.863529 531.154824l-0.060235-0.120471a40.237176 40.237176 0 0 0-56.741647 0l-170.164706 170.345412a40.357647 40.357647 0 0 0 0 56.801882 40.237176 40.237176 0 0 0 56.741647 0l141.854118-141.974588 176.067765 176.24847c15.661176 15.661176 41.020235 15.661176 56.741647 0l3.19247-2.951529 221.06353-232.990118a40.357647 40.357647 0 0 0-58.307765-55.356235z" p-id="4272"></path></svg>