<?xml version="1.0" standalone="no"?><!DOCTYPE svg PUBLIC "-//W3C//DTD SVG 1.1//EN" "http://www.w3.org/Graphics/SVG/1.1/DTD/svg11.dtd"><svg t="1623235896449" class="icon" viewBox="0 0 1024 1024" version="1.1" xmlns="http://www.w3.org/2000/svg" p-id="24527" xmlns:xlink="http://www.w3.org/1999/xlink" width="14" height="14"><defs><style type="text/css"></style></defs><path d="M931.66 892.49H769.75V545.96c0-148.59-115.57-269.47-257.63-269.47S254.49 397.38 254.49 545.96v346.53H92.58c-15.92 0.7-28.46 13.81-28.46 29.74 0 15.94 12.54 29.04 28.46 29.74h839.08c15.92-0.7 28.46-13.8 28.46-29.74 0-15.93-12.55-29.04-28.46-29.74z m-218.78 0.01H311.35V545.96c0-115.79 90.06-209.98 200.76-209.98 110.7 0 200.77 94.2 200.77 209.99V892.5z" p-id="24528"></path><path d="M92.59 953.98c-17.12-0.75-30.47-14.69-30.47-31.74 0-17.07 13.35-31.01 30.37-31.74H252.5V545.96c0-149.68 116.46-271.47 259.62-271.47s259.62 121.79 259.62 271.47V890.5h160.02c17.02 0.73 30.35 14.66 30.35 31.74 0 17.05-13.33 30.98-30.35 31.74H92.59z m0-59.49c-14.81 0.63-26.48 12.82-26.48 27.75 0 14.91 11.67 27.09 26.58 27.75h838.99c14.81-0.66 26.46-12.84 26.46-27.75s-11.65-27.09-26.51-27.75H767.76V545.96c0-147.49-114.69-267.48-255.64-267.48S256.49 398.47 256.49 545.96v348.53H92.59z m622.28 0H309.36V545.96c0-116.9 90.95-211.98 202.74-211.98 111.82 0 202.77 95.08 202.77 211.98v348.53z m-401.52-3.98h397.53V545.96c0-114.69-89.18-208-198.78-208s-198.75 93.31-198.75 208v344.55zM514.05 220.58c16.06-0.37 28.79-13.68 28.44-29.74v-89.4c0.45-10.45-4.87-20.3-13.86-25.66a28.45 28.45 0 0 0-29.16 0 28.468 28.468 0 0 0-13.85 25.66v89.39c-0.36 16.06 12.37 29.38 28.43 29.75z" p-id="24529"></path><path d="M514.05 222.58H514c-17.14-0.41-30.76-14.69-30.37-31.81v-89.32c-0.49-11.09 5.18-21.62 14.81-27.38a30.454 30.454 0 0 1 31.22 0 30.437 30.437 0 0 1 14.81 27.48v89.3c0.39 17.1-13.23 31.35-30.37 31.74h-0.05z m0-148.83c-4.69 0-9.39 1.24-13.57 3.72-8.37 5.01-13.3 14.18-12.86 23.88v89.47c-0.34 14.96 11.53 27.38 26.43 27.77 7.22-0.17 13.93-3.14 18.92-8.37 5.01-5.25 7.68-12.11 7.51-19.33v-89.44c0.44-9.8-4.5-18.97-12.86-23.98a26.618 26.618 0 0 0-13.57-3.72zM725.03 293.99c7.73-0.02 15.1-3.26 20.33-8.94l59.73-63.92c10.98-11.94 10.78-30.36-0.45-42.06a27.588 27.588 0 0 0-20.21-8.47 27.61 27.61 0 0 0-20.01 8.94l-59.73 63.92c-10.97 11.94-10.78 30.36 0.45 42.06a27.707 27.707 0 0 0 19.88 8.46v0.01z" p-id="24530"></path><path d="M723.04 295.99v-0.1c-7.27-0.49-14.23-3.72-19.33-9-11.94-12.43-12.13-32.1-0.46-44.77l59.73-63.96c5.5-5.98 13.3-9.48 21.45-9.58h0.27c8.05 0 15.81 3.31 21.38 9.1 11.94 12.43 12.16 32.1 0.49 44.77l-59.73 63.96c-5.59 6.06-13.55 9.56-21.79 9.58h-2.01z m61.67-123.41h-0.24c-7.05 0.1-13.81 3.11-18.58 8.29l-59.73 63.96c-10.24 11.11-10.07 28.4 0.41 39.3 4.82 4.99 11.53 7.85 18.46 7.85h1.02c6.78-0.29 13.23-3.28 17.85-8.29l59.73-63.93c10.21-11.14 10.04-28.4-0.44-39.3-4.81-5.01-11.55-7.88-18.48-7.88zM841.14 491.71h0.33l85.46-1c15.83-0.9 28.19-14.04 28.1-29.89-0.08-15.85-12.58-28.87-28.42-29.59h-0.33l-85.46 1c-15.79 0.94-28.09 14.07-28.01 29.89 0.09 15.81 12.52 28.81 28.32 29.59z" p-id="24531"></path><path d="M841.42 493.7h-0.39c-16.85-0.83-30.13-14.71-30.2-31.59-0.1-16.85 13.01-30.86 29.86-31.88l85.55-1c17.36 0.75 30.69 14.62 30.79 31.54 0.07 16.95-13.11 30.96-29.98 31.93l-85.63 1z m-0.24-3.99h0.29l85.43-1c14.69-0.83 26.22-13.11 26.14-27.92-0.1-14.81-11.75-26.92-26.53-27.58l-85.67 1c-14.64 0.88-26.12 13.13-26.02 27.87 0.07 14.77 11.65 26.88 26.36 27.63z" p-id="24532"></path><path d="M286.28 285.02a27.542 27.542 0 0 0 20 8.95c7.62 0.09 14.93-2.97 20.21-8.47 11.23-11.7 11.43-30.12 0.46-42.06l-59.73-63.93a27.504 27.504 0 0 0-20-8.95 27.558 27.558 0 0 0-20.21 8.48c-11.24 11.7-11.43 30.12-0.45 42.06l59.72 63.92z" p-id="24533"></path><path d="M306.61 295.97h-0.36c-8.15-0.1-15.95-3.6-21.42-9.61l-59.73-63.88c-11.7-12.69-11.48-32.37 0.46-44.82 5.57-5.79 13.35-9.1 21.38-9.1h0.29c8.15 0.1 15.95 3.6 21.45 9.61l59.73 63.91c11.65 12.69 11.43 32.37-0.49 44.82-5.53 5.76-13.28 9.07-21.31 9.07z m-59.68-123.42c-6.96 0-13.69 2.87-18.51 7.88-10.48 10.92-10.68 28.19-0.41 39.35l59.73 63.91c4.74 5.18 11.5 8.2 18.55 8.29h0.32c6.96 0 13.64-2.85 18.43-7.85 10.48-10.92 10.65-28.21 0.44-39.35l-59.73-63.91a25.776 25.776 0 0 0-18.58-8.32h-0.24z" p-id="24534"></path><path d="M98.5 490.69l85.46 1h0.32c15.84-0.72 28.33-13.74 28.42-29.59 0.09-15.85-12.27-29-28.1-29.89l-85.46-1.01h-0.32c-15.84 0.73-28.34 13.74-28.42 29.6-0.09 15.85 12.26 29 28.1 29.89z" p-id="24535"></path><path d="M184.39 493.68l-86.01-1c-16.9-0.97-30.06-14.98-29.96-31.91 0.07-16.9 13.4-30.79 30.3-31.57l85.92 1c17 0.97 30.15 14.98 30.06 31.93-0.08 16.93-13.41 30.79-30.31 31.55z m-85.82-4.99l85.41 1c15.03-0.66 26.65-12.77 26.73-27.58 0.1-14.83-11.43-27.09-26.22-27.92l-85.38-1c-15 0.68-26.63 12.82-26.7 27.6-0.11 14.8 11.4 27.05 26.16 27.9z" p-id="24536"></path><path d="M370.12 812.97c-15.97-0.29-28.68-13.48-28.39-29.45V577.53c-0.4-10.4 4.92-20.19 13.87-25.52a28.412 28.412 0 0 1 42.91 25.52v205.99c0.28 15.97-12.42 29.16-28.39 29.45z m0 0" p-id="24537"></path><path d="M370.11 814.97h-0.02c-8.27-0.15-15.95-3.5-21.69-9.46-5.74-5.96-8.8-13.76-8.66-22.01V577.53c-0.44-11.04 5.25-21.52 14.83-27.21 9.58-5.74 21.47-5.74 31.1 0a30.41 30.41 0 0 1 14.83 27.29v205.93c0.15 8.22-2.92 16.03-8.66 21.98s-13.45 9.31-21.72 9.46h-0.01z m0-264.95c-4.67 0-9.34 1.24-13.5 3.7a26.366 26.366 0 0 0-12.89 23.73v206.07c-0.27 14.88 11.55 27.16 26.39 27.46 7.17-0.15 13.89-3.06 18.87-8.24 4.99-5.18 7.68-11.99 7.54-19.19V577.53c0.36-9.75-4.57-18.85-12.89-23.81-4.16-2.46-8.85-3.7-13.52-3.7z" p-id="24538"></path></svg>