<?xml version="1.0" standalone="no"?><!DOCTYPE svg PUBLIC "-//W3C//DTD SVG 1.1//EN" "http://www.w3.org/Graphics/SVG/1.1/DTD/svg11.dtd"><svg t="1623223600392" class="icon" viewBox="0 0 1024 1024" version="1.1" xmlns="http://www.w3.org/2000/svg" p-id="5340" xmlns:xlink="http://www.w3.org/1999/xlink" width="14" height="14"><defs><style type="text/css"></style></defs><path d="M822.145605 959.969685 270.772798 959.969685 270.772798 201.862497l241.224644 0 0 314.440505 122.026077-92.675726 119.200613 92.675726L753.224132 201.862497l137.843969 0 0 689.188538c0 38.025035-30.893857 68.916603-68.921473 68.916603l0 0L822.145605 959.969685zM634.023519 378.468774l-87.563806 68.917626L546.459713 167.403684 718.761861 167.403684l0 279.982716L634.023519 378.468774 634.023519 378.468774zM167.3911 132.944871l0 34.458813c0 19.047822 15.411623 34.46086 34.459201 34.46086l34.462272 0 0 758.107187-34.462272 0c-38.094134 0-68.919426-30.891568-68.919426-68.917626L132.930875 132.945895c0-38.092573 30.825292-68.917626 68.919426-68.917626l620.295304 0c25.441458 0 47.383065 13.933337 59.364425 34.458813L201.851325 98.487082C182.802723 98.487082 167.3911 113.899096 167.3911 132.944871L167.3911 132.944871 167.3911 132.944871z" p-id="5341"></path></svg>