<?xml version="1.0" standalone="no"?><!DOCTYPE svg PUBLIC "-//W3C//DTD SVG 1.1//EN" "http://www.w3.org/Graphics/SVG/1.1/DTD/svg11.dtd"><svg t="1623223537976" class="icon" viewBox="0 0 1024 1024" version="1.1" xmlns="http://www.w3.org/2000/svg" p-id="4528" xmlns:xlink="http://www.w3.org/1999/xlink" width="14" height="14"><defs><style type="text/css"></style></defs><path d="M200 559.6h-88.2c-18.4 0-33.3 14.9-33.3 33.3s14.9 33.3 33.3 33.3H200c18.4 0 33.3-14.9 33.3-33.3s-14.9-33.3-33.3-33.3z m10.7-293.7c-11.6 0-21-9.4-21-21v-100c0-7 4.7-13 10.1-13h451.7c11.6 0 21-9.4 21-21V86c0-11.6-9.4-21-21-21h-465c-37.5 1.1-67 30-66 64.8v115.1c0 11.6-9.4 21-21 21h-0.1c-11.6 0-21 9.4-21 21v24c0 11.6 9.4 21 21 21h111.2c11.6 0 21-9.4 21-21v-24c0-11.6-9.3-21-20.9-21z m-10.8 146.9H112c-18.5 0-33.5 15-33.5 33.5s15 33.5 33.5 33.5h87.9c18.5 0 33.5-15 33.5-33.5-0.1-18.5-15.1-33.5-33.5-33.5z m689.3 66.9h-29c-11.6 0-21 9.4-21 21v378.7c0 6.9-4.7 13-10.1 13H201.6c-5.4 0-10.1-6-10.1-13V779.3c0-11.6 9.4-21 21-21s21-9.4 21-21V716c0-11.6-9.4-21-21-21h-113c-11.6 0-21 9.4-21 21v21.3c0 11.6 9.4 21 21 21s21 9.4 21 21v115.1c-1 34.8 28.5 63.7 66 64.8H844c37.5-1 67-30 66.1-64.8V500.7c0-11.6-9.4-21-20.9-21zM924.6 226l-80.4-74.5c-13.3-12.4-31.7-19.3-50.9-19-19.1 0.4-37.2 8-50 20.9L390.4 508c-2.7 2.7-4.7 5.9-6 9.4l-69.9 194.5c-3.4 9.3-0.8 19.4 6.8 26.4 7.5 7 18.6 9.4 28.6 6.3l209.6-64.8c4.5-1.4 8.5-3.8 11.7-6.9L926.5 316c25.6-25.9 24.7-65.2-1.9-90zM398.3 666.8l29.2-81.3 58.5 54.2-87.7 27.1z m159-72L473 517l162.9-163.4 84.3 78.1-162.9 163.1z m312.3-313.6l-0.2 0.2-87.3 87.6-84.4-78.4 86.7-87.3c2.1-2.2 5.2-3.4 8.4-3.5 3.2-0.1 6.3 1 8.5 3.2l67.9 63c4.5 4.2 4.7 10.9 0.4 15.2z m15.9-0.6" p-id="4529"></path></svg>