<?xml version="1.0" standalone="no"?><!DOCTYPE svg PUBLIC "-//W3C//DTD SVG 1.1//EN" "http://www.w3.org/Graphics/SVG/1.1/DTD/svg11.dtd"><svg t="1623223880521" class="icon" viewBox="0 0 1024 1024" version="1.1" xmlns="http://www.w3.org/2000/svg" p-id="6962" xmlns:xlink="http://www.w3.org/1999/xlink" width="14" height="14"><defs><style type="text/css"></style></defs><path d="M546.4576 871.7824h169.8304v71.68H306.4832v-71.68h168.2944v-45.2096h-304.128a35.84 35.84 0 0 1-35.84-35.84V213.0944a35.84 35.84 0 0 1 35.84-35.84h682.7008a35.84 35.84 0 0 1 35.84 35.84v577.6384a35.84 35.84 0 0 1-35.84 35.84h-206.592v-71.68h170.752V248.9344H206.4896v505.9584h304.128a35.84 35.84 0 0 1 35.84 35.84v81.0496zM305.5104 333.0048h71.68v322.9184h-71.68V333.0048z m341.2992 80.5888h71.68v242.3296h-71.68V413.5936z m-170.6496 0h71.68v242.3296H476.16V413.5936z" p-id="6963"></path></svg>