<?xml version="1.0" standalone="no"?><!DOCTYPE svg PUBLIC "-//W3C//DTD SVG 1.1//EN" "http://www.w3.org/Graphics/SVG/1.1/DTD/svg11.dtd"><svg t="1623236028203" class="icon" viewBox="0 0 1024 1024" version="1.1" xmlns="http://www.w3.org/2000/svg" p-id="25513" xmlns:xlink="http://www.w3.org/1999/xlink" width="14" height="14"><defs><style type="text/css"></style></defs><path d="M987.429 1024H36.57A36.571 36.571 0 0 1 0 987.429V109.714a36.571 36.571 0 0 1 36.571-36.571h292.572a36.571 36.571 0 0 1 0 73.143h-256v804.571h877.714V146.286h-256a36.571 36.571 0 0 1 0-73.143H987.43A36.571 36.571 0 0 1 1024 109.714V987.43A36.571 36.571 0 0 1 987.429 1024z" p-id="25514"></path><path d="M841.143 365.714H548.57a36.571 36.571 0 0 1 0-73.143h292.572a36.571 36.571 0 0 1 0 73.143z m0 146.286H548.57a36.571 36.571 0 0 1 0-73.143h292.572a36.571 36.571 0 0 1 0 73.143z m0 365.714H548.57a36.571 36.571 0 0 1 0-73.143h292.572a36.571 36.571 0 0 1 0 73.143z m0-146.285H548.57a36.571 36.571 0 0 1 0-73.143h292.572a36.571 36.571 0 0 1 0 73.143zM256 877.714A109.714 109.714 0 1 1 365.714 768 109.714 109.714 0 0 1 256 877.714z m0-146.285A36.571 36.571 0 1 0 292.571 768 36.571 36.571 0 0 0 256 731.429zM256 512a34.377 34.377 0 0 1-25.6-10.971l-73.143-73.143a35.84 35.84 0 0 1 51.2-51.2L256 423.497l120.686-119.954a35.84 35.84 0 0 1 51.2 51.2L281.6 501.029A34.377 34.377 0 0 1 256 512z m438.857-292.571H329.143a36.571 36.571 0 0 1-36.572-36.572V36.571A36.571 36.571 0 0 1 329.143 0h365.714a36.571 36.571 0 0 1 36.572 36.571v146.286a36.571 36.571 0 0 1-36.572 36.572z m-329.143-73.143h292.572V73.143H365.714z" p-id="25515"></path></svg>