<?xml version="1.0" standalone="no"?><!DOCTYPE svg PUBLIC "-//W3C//DTD SVG 1.1//EN" "http://www.w3.org/Graphics/SVG/1.1/DTD/svg11.dtd"><svg t="1623288423092" class="icon" viewBox="0 0 1024 1024" version="1.1" xmlns="http://www.w3.org/2000/svg" p-id="2491" xmlns:xlink="http://www.w3.org/1999/xlink" width="14" height="14"><defs><style type="text/css"></style></defs><path d="M544 211.2V70.4c0-19.2-12.8-32-32-32s-32 12.8-32 32v134.4H512c6.4 6.4 19.2 6.4 32 6.4zM992 518.4h-128V576h128c19.2 0 32-12.8 32-25.6 0-19.2-12.8-32-32-32zM243.2 326.4c12.8-12.8 25.6-25.6 44.8-38.4L192 192c-12.8-12.8-32-12.8-44.8 0-12.8 12.8-12.8 32 0 38.4l96 96zM780.8 332.8l96-96c12.8-12.8 12.8-32 0-38.4-12.8-12.8-32-12.8-44.8 0l-96 96c19.2 6.4 32 25.6 44.8 38.4zM160 556.8v-38.4h-128c-19.2 0-32 12.8-32 32 0 12.8 12.8 25.6 32 25.6h128v-19.2zM876.8 902.4h-70.4V556.8c0-160-134.4-288-294.4-288-160 0-294.4 128-294.4 288v345.6H147.2c-19.2 0-32 12.8-32 32s12.8 32 32 32h729.6c19.2 0 32-12.8 32-32-6.4-12.8-19.2-32-32-32z m-128 0H275.2V576C275.2 448 384 345.6 512 345.6S748.8 448 748.8 576v326.4z" p-id="2492"></path><path d="M627.2 620.8c0-19.2-12.8-32-32-32H492.8l64-64c12.8-12.8 12.8-32 0-38.4-12.8-12.8-32-12.8-38.4 0L403.2 601.6c-6.4 6.4-6.4 12.8-6.4 25.6s19.2 25.6 32 25.6c6.4 0 6.4 6.4 12.8 6.4h102.4l-83.2 83.2c-12.8 6.4-12.8 25.6 0 38.4s32 12.8 44.8 0l115.2-115.2c6.4-6.4 12.8-19.2 6.4-32v-12.8z" p-id="2493"></path></svg>