<?xml version="1.0" standalone="no"?><!DOCTYPE svg PUBLIC "-//W3C//DTD SVG 1.1//EN" "http://www.w3.org/Graphics/SVG/1.1/DTD/svg11.dtd"><svg t="1623288651032" class="icon" viewBox="0 0 1024 1024" version="1.1" xmlns="http://www.w3.org/2000/svg" p-id="3438" xmlns:xlink="http://www.w3.org/1999/xlink" width="14" height="14"><defs><style type="text/css"></style></defs><path d="M229 242.8c74.4-75.3 172.9-116.5 279.5-116.5 78.8 0 154.1 23.3 218.6 66.3l-66.3 0.9c-14.3 0-26.9 12.5-26 26.9 0 14.3 12.5 26 26.9 26l139.8-1.8c10.8 0 20.6-6.3 24.2-17 3.6-9.9 1.8-21.5-6.3-28.7C735.2 118.2 625 73.4 508.5 73.4c-121 0-233.8 47.5-317.2 132.6C64.2 335.1 29.2 525 100 690.7c4.5 9.9 13.4 16.1 24.2 16.1 3.6 0 7.2-0.9 10.8-1.8 13.4-5.4 19.7-21.5 14.3-34.9-62.8-146-31.4-313.5 79.7-427.3z m689 76.1c-4.5-9-13.4-15.2-24.2-15.2-3.6 0-8.1 0.9-11.6 2.7-6.3 2.7-11.6 8.1-13.4 15.2-2.7 6.3-1.8 13.4 0.9 20.6 69 146 39.4 322.5-74.4 438.1-72.6 74.4-171.1 115.6-275.1 116.5h-2.7c-79.7 0-155-23.3-219.5-66.3l66.3-0.9c7.2 0 13.4-2.7 18.8-8.1 5.4-5.4 8.1-11.6 7.2-18.8 0-14.3-11.6-26-26.9-26l-139.8 1.8c-10.8 0-20.6 6.3-24.2 17-4.5 9.9-1.8 21.5 6.3 28.7 83.3 81.5 193.5 126.3 310.9 126.3h4.5c118.3-0.9 229.4-48.4 312.7-132.6 129-132.5 163-332.3 84.2-499z m-405.9-6.2c-180.1 0-275.9 199.8-275.9 199.8s94.1 199.8 275.9 199.8c170.2 0 275.9-199.8 275.9-199.8S684.1 312.7 512.1 312.7z m119.2 199.7c0 31.4-12.5 61.8-34.9 84.2s-52.9 34.9-84.2 34.9C446.7 631.6 393 577 393 512.4c0-31.4 12.5-61.8 34.9-84.2 22.4-22.4 52.9-34.9 84.2-34.9 65.4-0.9 119.2 53.7 119.2 119.1z m-142.5-75.2l21.5 75.3-70.8-28.7c-3.6 9-5.4 18.8-5.4 28.7 0 42.1 34.9 77.1 77.1 77.1 20.6 0 40.3-8.1 54.7-22.4 14.3-14.3 22.4-34 22.4-54.7 0-42.1-34.9-77.1-77.1-77.1-7.1 0-15.2 0-22.4 1.8z" p-id="3439"></path></svg>