<?xml version="1.0" standalone="no"?><!DOCTYPE svg PUBLIC "-//W3C//DTD SVG 1.1//EN" "http://www.w3.org/Graphics/SVG/1.1/DTD/svg11.dtd"><svg t="1623234799895" class="icon" viewBox="0 0 1024 1024" version="1.1" xmlns="http://www.w3.org/2000/svg" p-id="8797" width="14" height="14" xmlns:xlink="http://www.w3.org/1999/xlink"><defs><style type="text/css"></style></defs><path d="M799.093 627.567c24.85 0 31.12-6.333 31.12-31.12 0-14.35-10.184-26.09-20.6-34.317l-1.977-1.978c-34.634-26.785-70.782-52.308-112.338-68.172 52.855-45.365 86.5-112.57 86.5-187.686C781.798 167.738 671.038 57 534.482 57S287.21 167.738 287.21 304.294c0 75.116 33.644 142.321 86.478 187.686C205.002 556.702 84.963 719.81 84.858 911.41v0.084c0.105 24.744 10.962 43.197 35.665 43.197 24.912 0 26.68-17.885 26.743-42.608 0-198.374 119.218-385.765 387.237-381.325 81.345 1.347 176.66 32.635 234.775 81.05 15.781 13.15 19.253 13.319 26.301 15.339l3.514 0.42zM534.503 482.7c-127.718-0.252-189.116-91.612-189.116-178.406 0-86.752 70.15-188.316 189.369-188.316 138.533 0 189.368 102.616 189.368 189.368 0 86.815-80.629 180.637-189.62 177.354z m82.439 263.79c0 24.83 20.136 36.696 44.964 36.696h239.867c24.828 0 44.965-11.867 44.965-36.695 0-24.87-20.137-34.318-44.965-34.318H661.906c-24.828 0-44.964 9.447-44.964 34.318z m284.831 146.257H661.906c-24.828 0-44.964 8.795-44.964 33.623 0 24.87 20.136 33.897 44.964 33.897h239.867c24.828 0 44.965-9.048 44.965-33.897 0-24.828-20.137-33.623-44.965-33.623z m0 0" p-id="8798" fill="#BFCBD9"></path></svg>