<?xml version="1.0" standalone="no"?><!DOCTYPE svg PUBLIC "-//W3C//DTD SVG 1.1//EN" "http://www.w3.org/Graphics/SVG/1.1/DTD/svg11.dtd"><svg t="1623235754764" class="icon" viewBox="0 0 1024 1024" version="1.1" xmlns="http://www.w3.org/2000/svg" p-id="22879" xmlns:xlink="http://www.w3.org/1999/xlink" width="14" height="14"><defs><style type="text/css"></style></defs><path d="M692.419048 579.363668c-36.481129 0-66.099471 29.618342-66.099471 66.099471 0 36.481129 29.618342 66.099471 66.099471 66.099471 36.481129 0 66.099471-29.618342 66.099471-66.099471 0-17.337566-6.862787-34.313933-19.504762-46.594709-12.280776-12.280776-28.895944-19.504762-46.594709-19.504762m0 196.131217c-71.87866 0-129.670547-58.153086-129.670547-130.031746s58.153086-129.670547 130.031746-129.670546 129.670547 58.153086 129.670547 130.031746c0 71.51746-58.153086 129.670547-130.031746 129.670546m79.102645 89.938625c0.722399 0.361199 1.444797 0.361199 2.167196 0.361199l62.848677-34.675132c-5.05679-12.280776-7.946384-25.283951-8.307584-38.648325 0-53.096296 41.537919-97.16261 94.634216-100.052204 2.889594-14.809171 4.334392-29.979541 4.69559-45.511111-0.361199-15.17037-2.167196-30.70194-4.69559-45.511112-53.096296-2.889594-94.634215-46.594709-94.634216-100.052204 0.361199-13.364374 3.250794-26.367549 8.307584-38.648325l-61.765079-34.313933c-0.722399 0-1.805996 0.361199-2.528395 0.722399-7.223986 7.223986-14.809171 13.364374-22.755556 19.143563-15.53157 11.919577-33.952734 19.143563-53.457495 20.22716-19.865961-1.083598-38.648325-8.307584-54.179895-20.58836-8.307584-5.779189-15.892769-12.280776-23.116754-19.504762-0.722399-0.361199-1.444797-0.722399-2.528396-0.722398l-64.654673 35.397531c5.05679 12.280776 7.946384 25.283951 8.307584 38.648324-0.361199 53.096296-41.899118 96.801411-94.634216 99.691005-2.889594 14.809171-4.334392 29.979541-4.69559 45.511112 0.361199 15.17037 2.167196 30.340741 4.69559 45.511111 53.096296 2.889594 94.634215 46.594709 94.634216 100.052204-0.361199 13.364374-3.250794 26.367549-8.668784 38.648325l60.681482 33.952733c0.722399 0 1.444797-0.361199 2.167196-0.361199 7.223986-7.585185 14.809171-14.086772 23.116755-20.22716 15.53157-12.641975 34.675132-20.22716 54.902292-21.310759 20.22716 1.083598 39.731922 9.029982 55.263492 22.033157 8.668783 5.417989 16.615168 12.641975 24.200353 20.227161m19.504762 94.995414c-11.919577 0-23.116755-4.695591-31.424339-13.364374-18.059965-20.949559-42.621517-35.397531-70.072663-40.81552-27.089947 5.417989-51.2903 19.504762-69.350264 40.093122-8.307584 8.307584-19.504762 13.364374-31.06314 13.003174-5.417989 0-10.835979-1.083598-15.892769-3.250793l-0.722398-0.3612-81.631041-45.511111-0.722398-0.722398c-14.809171-10.835979-20.58836-30.340741-13.003175-47.317108 4.334392-10.47478 6.862787-21.671958 7.585185-33.230335 0-47.678307-38.648325-86.326631-86.326631-86.326631h-3.250794c-13.725573 0-24.922751-11.919577-28.173545-30.70194-3.973192-21.671958-6.501587-43.343915-6.862786-65.377073 0.722399-22.033157 3.250794-43.705115 7.223986-65.015873 3.611993-19.143563 14.809171-31.063139 28.895943-30.70194h2.889594c47.678307 0 86.326631-38.648325 86.326632-86.326631-0.722399-11.197178-3.250794-22.394356-7.585185-33.230335-7.223986-16.976367-1.805996-36.481129 13.364374-47.317108l0.722398-0.722399L577.918871 335.915344l0.722399-0.361199c5.05679-2.167196 10.47478-3.250794 15.892769-3.250794 11.558377 0 23.116755 4.695591 31.424338 13.003175 18.059965 19.865961 41.899118 33.230335 68.266667 38.287125 26.006349-4.695591 49.845503-18.059965 67.905467-37.564727 8.307584-8.307584 19.504762-12.641975 31.06314-12.641975 5.417989 0 10.835979 1.083598 16.253968 3.250794l0.722399 0.361199 83.075837 46.233509 0.722399 0.722399c14.809171 10.835979 20.58836 30.340741 13.003175 47.317108-4.334392 10.47478-6.862787 21.671958-7.585186 32.869135 0 47.678307 38.648325 86.326631 86.326632 86.326632h2.889594c13.725573 0 25.283951 11.919577 28.895944 30.70194 3.973192 21.671958 6.501587 43.343915 6.862786 65.015873-0.722399 22.033157-2.889594 43.705115-6.862786 65.015873-3.611993 19.143563-14.809171 31.063139-28.895944 30.70194h-2.889594c-47.678307 0-86.326631 38.648325-86.326632 86.326631 0.722399 11.197178 3.250794 22.394356 7.585186 33.230335 7.223986 16.976367 1.805996 36.481129-13.364374 47.317108l-0.722399 0.722399-84.881834 47.678307-0.722399 0.361199c-5.05679 2.167196-10.11358 3.250794-15.531569 3.250793l-0.722399-0.361199z m195.408818-620.179189c0.722399 15.53157-7.585185 30.340741-20.949559 38.648325-13.364374 7.946384-30.340741 7.946384-43.705114 0-13.364374-7.946384-21.671958-22.755556-20.949559-38.648325V169.04127c0-5.779189-2.167196-11.197178-6.140388-15.170371s-9.391182-6.140388-15.170371-6.140388H107.27619c-11.919577 0-21.310758 9.752381-21.310758 21.310759v514.347795c0 11.919577 9.391182 21.310758 21.310758 21.310759h192.880424c15.53157-0.722399 30.340741 7.585185 38.648324 20.949559 7.946384 13.364374 7.946384 30.340741 0 43.705114-7.946384 13.364374-22.755556 21.671958-38.648324 20.949559H43.343915c-11.558377 0-22.394356-4.334392-30.34074-12.641975-7.946384-7.946384-12.641975-18.782363-12.641976-30.340741v-642.934744c0-11.558377 4.695591-22.394356 12.641976-30.340741S32.146737 61.40388 43.343915 61.40388h900.469842c11.558377 0 22.394356 4.334392 30.34074 12.641975 7.946384 7.946384 12.641975 19.143563 12.641976 30.340741l-0.3612 235.863139zM193.241623 919.252205c0-23.839153 19.504762-42.982716 42.982716-42.982716h171.208465c15.53157-0.722399 30.340741 7.585185 38.648325 20.949559 7.946384 13.364374 7.946384 30.340741 0 43.705114-7.946384 13.364374-22.755556 21.671958-38.648325 20.949559H236.224339c-11.558377 0-22.394356-4.334392-30.340741-12.641975-8.307584-7.585185-12.641975-18.421164-12.641975-29.979541z m0 0" p-id="22880"></path></svg>