<svg t="1628651667457" class="icon" viewBox="0 0 1123 1024" version="1.1" xmlns="http://www.w3.org/2000/svg" p-id="3487" width="32" height="32"><path d="M92.716274 284.102544a292.452268 292.452268 0 0 1 83.476049-205.2252A46.262558 46.262558 0 1 0 109.924335 14.283538a386.10057 386.10057 0 0 0 4.238439 543.834065 46.262558 46.262558 0 0 0 65.144802-65.695799 292.176769 292.176769 0 0 1-86.591302-208.31926z m689.67874-175.132286a46.262558 46.262558 0 0 0-1.335109 65.377916 158.348069 158.348069 0 0 1-2.882138 222.306108 46.241366 46.241366 0 0 0 19.984238 78.241578 45.98706 45.98706 0 0 0 45.054603-12.545778 250.915569 250.915569 0 0 0 4.53513-352.171869 46.177789 46.177789 0 0 0-32.424056-14.198769 46.792363 46.792363 0 0 0-32.932668 12.990814z" p-id="3488"></path><path d="M1013.368729 14.283538a46.262558 46.262558 0 1 0-66.246797 64.593806 293.850953 293.850953 0 0 1-3.221213 413.650421 46.262558 46.262558 0 1 0 65.144802 65.695799A386.10057 386.10057 0 0 0 1013.368729 14.283538zM345.560333 462.116968a46.156597 46.156597 0 0 0-0.339076-65.377917 158.454029 158.454029 0 0 1-2.882138-222.306108 46.241366 46.241366 0 0 0-66.691832-64.021616 251.000338 251.000338 0 0 0 4.556321 352.235445 46.453288 46.453288 0 0 0 65.356725-0.529804z m283.699892-70.252121a123.423334 123.423334 0 1 0-138.06714-0.890072l-207.683495 570.684574a46.220174 46.220174 0 1 0 86.887993 31.533983l43.952609-120.647156h291.477427l45.033411 123.762409a41.896966 41.896966 0 0 0 53.595057 24.964404l8.328532-2.9881a41.896966 41.896966 0 0 0 24.964404-53.616249z m-69.128935 80.360797l55.94739 153.72817h-111.915973z m-115.75176 318.094822l29.965761-82.246903h171.656766l29.965762 82.246903z" p-id="3489"></path></svg>
